<?xml version="1.0" encoding="UTF-8"?>
<svg width="50px" height="50px" viewBox="0 0 50 50" version="1.1" xmlns="http://www.w3.org/2000/svg" xmlns:xlink="http://www.w3.org/1999/xlink" xmlns:sketch="http://www.bohemiancoding.com/sketch/ns">
    <!-- Generator: Sketch 3.5.1 (25234) - http://www.bohemiancoding.com/sketch -->
    <title>google</title>
    <desc>Created with Sketch.</desc>
    <defs></defs>
    <g id="Page-1" stroke="none" stroke-width="1" fill="none" fill-rule="evenodd" sketch:type="MSPage">
        <g id="google" sketch:type="MSLayerGroup" fill="#00A59C">
            <g id="Group" sketch:type="MSShapeGroup">
                <path d="M21.5,28.94 C21.339,28.833 21.174,28.717 21.001,28.6 C20.498,28.446 19.964,28.366 19.417,28.359 L19.351,28.359 C16.837,28.359 14.633,29.88 14.633,31.616 C14.633,33.506 16.522,34.983 18.932,34.983 C22.111,34.983 23.722,33.885 23.722,31.725 C23.722,31.521 23.698,31.309 23.647,31.096 C23.432,30.258 22.663,29.735 21.5,28.94 L21.5,28.94 Z" id="Shape"></path>
                <path d="M19.719,22.352 L19.721,22.352 C20.322,22.352 20.829,22.115 21.222,21.665 C21.838,20.963 22.111,19.811 21.949,18.588 C21.664,16.402 20.101,14.582 18.47,14.535 L18.405,14.533 C17.828,14.533 17.313,14.771 16.922,15.219 C16.315,15.912 16.058,17.01 16.217,18.231 C16.503,20.415 18.099,22.302 19.696,22.352 L19.719,22.352 L19.719,22.352 L19.719,22.352 Z" id="Shape"></path>
                <path d="M24.826,0 C11.137,0 0,11.137 0,24.826 C0,38.514 11.137,49.652 24.826,49.652 C38.514,49.652 49.652,38.514 49.652,24.826 C49.652,11.137 38.516,0 24.826,0 L24.826,0 Z M21.964,36.915 C21.026,37.186 20.011,37.323 18.946,37.323 C17.76,37.323 16.62,37.187 15.557,36.918 C13.5,36.399 11.98,35.415 11.27,34.147 C10.964,33.599 10.809,33.015 10.809,32.41 C10.809,31.787 10.958,31.155 11.252,30.529 C12.379,28.127 15.35,26.511 18.641,26.511 L18.735,26.511 C18.468,26.04 18.339,25.552 18.339,25.039 C18.339,24.784 18.373,24.524 18.441,24.259 C14.989,24.181 12.406,21.653 12.406,18.32 C12.406,15.967 14.287,13.674 16.977,12.748 C17.782,12.47 18.603,12.328 19.41,12.328 L26.792,12.328 C27.043,12.328 27.266,12.491 27.344,12.73 C27.422,12.968 27.336,13.23 27.133,13.377 L25.482,14.572 C25.383,14.642 25.264,14.68 25.141,14.68 L24.55,14.68 C25.313,15.595 25.76,16.9 25.76,18.365 C25.76,19.982 24.942,21.511 23.453,22.676 C22.303,23.572 22.258,23.819 22.258,24.33 C22.272,24.611 23.073,25.528 23.957,26.153 C26.016,27.609 26.782,29.038 26.782,31.422 C26.781,33.913 24.89,36.065 21.964,36.915 L21.964,36.915 Z M38.635,24.253 C38.635,24.573 38.374,24.833 38.055,24.833 L33.86,24.833 L33.86,29.03 C33.86,29.35 33.599,29.61 33.282,29.61 L32.087,29.61 C31.765,29.61 31.505,29.35 31.505,29.03 L31.505,24.833 L27.313,24.833 C26.993,24.833 26.733,24.575 26.733,24.253 L26.733,23.06 C26.733,22.74 26.993,22.478 27.313,22.478 L31.505,22.478 L31.505,18.285 C31.505,17.964 31.765,17.705 32.087,17.705 L33.282,17.705 C33.599,17.705 33.86,17.964 33.86,18.285 L33.86,22.478 L38.054,22.478 C38.373,22.478 38.634,22.738 38.634,23.058 L38.634,24.253 L38.635,24.253 Z" id="Shape"></path>
            </g>
        </g>
    </g>
</svg>