<?xml version="1.0" encoding="UTF-8"?>
<svg width="50px" height="50px" viewBox="0 0 50 50" version="1.1" xmlns="http://www.w3.org/2000/svg" xmlns:xlink="http://www.w3.org/1999/xlink" xmlns:sketch="http://www.bohemiancoding.com/sketch/ns">
    <!-- Generator: Sketch 3.5.1 (25234) - http://www.bohemiancoding.com/sketch -->
    <title>instagram</title>
    <desc>Created with Sketch.</desc>
    <defs></defs>
    <g id="Page-1" stroke="none" stroke-width="1" fill="none" fill-rule="evenodd" sketch:type="MSPage">
        <g id="instagram" sketch:type="MSLayerGroup" fill="#00A59C">
            <g id="Group" sketch:type="MSShapeGroup">
                <path d="M24.825,29.796 C27.564,29.796 29.797,27.567 29.797,24.826 C29.797,23.744 29.443,22.745 28.857,21.929 C27.954,20.677 26.486,19.856 24.828,19.856 C23.169,19.856 21.702,20.676 20.797,21.928 C20.209,22.744 19.858,23.743 19.857,24.825 C19.854,27.566 22.085,29.796 24.825,29.796 L24.825,29.796 Z" id="Shape"></path>
                <path d="M35.678,18.746 L35.678,14.58 L35.678,13.96 L35.055,13.962 L30.891,13.975 L30.907,18.762 L35.678,18.746 Z" id="Shape"></path>
                <path d="M24.826,0 C11.137,0 0,11.137 0,24.826 C0,38.514 11.137,49.652 24.826,49.652 C38.514,49.652 49.652,38.514 49.652,24.826 C49.652,11.137 38.516,0 24.826,0 L24.826,0 Z M38.945,21.929 L38.945,33.489 C38.945,36.5 36.497,38.947 33.488,38.947 L16.164,38.947 C13.154,38.947 10.707,36.5 10.707,33.489 L10.707,21.929 L10.707,16.165 C10.707,13.155 13.154,10.708 16.164,10.708 L33.487,10.708 C36.497,10.708 38.945,13.155 38.945,16.165 L38.945,21.929 L38.945,21.929 Z" id="Shape"></path>
                <path d="M32.549,24.826 C32.549,29.083 29.085,32.549 24.826,32.549 C20.567,32.549 17.104,29.083 17.104,24.826 C17.104,23.802 17.308,22.823 17.672,21.929 L13.457,21.929 L13.457,33.489 C13.457,34.983 14.67,36.193 16.163,36.193 L33.486,36.193 C34.977,36.193 36.192,34.983 36.192,33.489 L36.192,21.929 L31.975,21.929 C32.342,22.823 32.549,23.802 32.549,24.826 L32.549,24.826 Z" id="Shape"></path>
            </g>
        </g>
    </g>
</svg>