<?xml version="1.0" encoding="UTF-8"?>
<svg width="447px" height="447px" viewBox="0 0 447 447" version="1.1" xmlns="http://www.w3.org/2000/svg" xmlns:xlink="http://www.w3.org/1999/xlink" xmlns:sketch="http://www.bohemiancoding.com/sketch/ns">
    <!-- Generator: Sketch 3.5.1 (25234) - http://www.bohemiancoding.com/sketch -->
    <title>kitches</title>
    <desc>Created with Sketch.</desc>
    <defs>
        <path id="path-1" d="M223.434,0 C100.233,0 0,100.233 0,223.434 C0,346.626 100.233,446.868 223.434,446.868 C346.626,446.868 446.868,346.626 446.868,223.434 C446.868,100.233 346.644,0 223.434,0 L223.434,0 Z"></path>
    </defs>
    <g id="Page-1" stroke="none" stroke-width="1" fill="none" fill-rule="evenodd" sketch:type="MSPage">
        <g id="kitches" sketch:type="MSLayerGroup">
            <mask id="mask-2" sketch:name="Mask" fill="white">
                <use xlink:href="#path-1"></use>
            </mask>
            <use id="Mask" fill="#00A59C" sketch:type="MSShapeGroup" xlink:href="#path-1"></use>
            <path d="M151.483886,322.918688 C137.448853,299.473022 144.285645,218.430176 144.285645,218.430176 L175.706017,226.742981 C175.706017,226.742981 173.019313,274.572423 178.573975,286.945145 C183.243406,297.34606 206.378295,295.063894 206.378295,295.063894 L206.378294,230.764526 L234.056811,233.256226 L234.056813,295.063894 C234.056813,295.063894 255.803624,297.352115 261.083497,286.945145 C266.15106,276.956651 265.099119,233.877502 265.099119,233.877502 L297.616882,233.256226 C297.616882,233.256226 300.701105,298.172245 288.735458,322.918691 C276.769811,347.665136 242.021845,358.098615 242.021845,358.098615 L242.021845,450 L198.595597,450 L198.595597,358.098619 C198.595597,358.098619 165.51892,346.364353 151.483886,322.918688 Z" id="fork" fill="#FFFFFF" sketch:type="MSShapeGroup" mask="url(#mask-2)"></path>
            <path d="M285.144479,225 C376.945465,225 405,124.317126 405,93.4936877 C405,62.6702493 361.854742,170.545255 296.960056,158.689826 C181.706764,137.634524 118.758664,72 92.3769496,126.64017 C76.0686596,118.909737 62.8466861,102.525771 54.5794461,72 C43.9012357,72.2326978 36,81.7502361 36,88.6952692 C36,101.560509 49.9930008,135.803049 85.601021,155.086107 C94.9372702,224.919336 231.659846,225 285.144479,225 Z" id="pepper" fill="#FFFFFF" sketch:type="MSShapeGroup" mask="url(#mask-2)"></path>
        </g>
    </g>
</svg>