<?xml version="1.0" encoding="UTF-8"?>
<svg width="141px" height="138px" viewBox="0 0 141 138" version="1.1" xmlns="http://www.w3.org/2000/svg" xmlns:xlink="http://www.w3.org/1999/xlink" xmlns:sketch="http://www.bohemiancoding.com/sketch/ns">
    <!-- Generator: Sketch 3.5.1 (25234) - http://www.bohemiancoding.com/sketch -->
    <title>favicon</title>
    <desc>Created with Sketch.</desc>
    <defs></defs>
    <g id="Page-1" stroke="none" stroke-width="1" fill="none" fill-rule="evenodd" sketch:type="MSPage">
        <g id="192---xxxhpdi" sketch:type="MSArtboardGroup" transform="translate(-21.000000, -24.000000)">
            <g id="favicon" sketch:type="MSLayerGroup">
                <rect id="Rectangle-1" sketch:type="MSShapeGroup" x="0" y="0" width="192" height="192"></rect>
                <g id="Group-2" transform="translate(43.000000, 46.000000)" sketch:type="MSShapeGroup">
                    <path d="M0.142439449,7.15495976 C-0.678120045,2.81222528 2.12991942,0.163335473 6.41961194,1.23981394 L112.408406,27.8372108 C116.695752,28.9131004 119.560001,33.3196049 118.807977,37.667315 L112.106701,76.4097097 C111.35374,80.7628367 107.154271,84.2917434 102.74194,84.2917434 L22.7188364,84.2917434 C18.2997825,84.2917434 14.0528374,80.7744419 13.231677,76.428527 L0.142439449,7.15495976 Z" id="Rectangle-2" fill="#FF715B"></path>
                    <path d="M4.91707591,4.2861715 C1.45955751,1.52782503 2.12991942,0.163335473 6.41961194,1.23981394 L112.408406,27.8372108 C116.695752,28.9131004 119.560001,33.3196049 118.807977,37.667315 L112.106701,76.4097097 C111.35374,80.7628367 107.840271,82.1979776 104.259636,79.6155384 L59.4837088,47.3220752 C55.9028553,44.7394785 50.1927009,40.4062571 46.7396091,37.6514421 L4.91707591,4.2861715 Z" id="Rectangle-2" fill="#F26B57"></path>
                </g>
                <g id="Group" transform="translate(136.000000, 137.000000)" sketch:type="MSShapeGroup">
                    <circle id="Oval-1" fill="#1EA896" cx="12.5" cy="12.5" r="12.5"></circle>
                    <path d="M16.6209786,0.521755258 C15.4853034,0.182326029 14.2818207,0 13.0357536,0 C8.26652704,0 4.12112845,2.67092487 2.01376581,6.59856659 C1.43445817,12.8726193 19.3123244,24.8229987 22.9843439,19.5788115 C26.9440629,13.9237467 25.5697136,6.12942444 19.9146488,2.16970545 C18.8765312,1.44280765 17.7663225,0.895663021 16.6209786,0.521755258 Z" id="Oval-1" fill="#1B9B8A"></path>
                </g>
                <g id="Group" transform="translate(43.000000, 137.000000)" sketch:type="MSShapeGroup">
                    <circle id="Oval-1" fill="#1EA896" cx="12.5" cy="12.5" r="12.5"></circle>
                    <path d="M16.6209786,0.521755258 C15.4853034,0.182326029 14.2818207,0 13.0357536,0 C8.26652704,0 4.12112845,2.67092487 2.01376581,6.59856659 C1.43445817,12.8726193 19.3123244,24.8229987 22.9843439,19.5788115 C26.9440629,13.9237467 25.5697136,6.12942444 19.9146488,2.16970545 C18.8765312,1.44280765 17.7663225,0.895663021 16.6209786,0.521755258 Z" id="Oval-1" fill="#1B9B8A"></path>
                </g>
                <g id="Group" transform="translate(21.000000, 24.000000)" sketch:type="MSShapeGroup">
                    <ellipse id="Oval-1" fill="#523F38" cx="10.0961538" cy="10.5" rx="10.0961538" ry="10.5"></ellipse>
                    <path d="M19.3315443,5.35420462 C18.292128,3.43515887 16.6892963,1.89020189 14.7564168,0.962036019 C11.6579892,-0.476421594 8.0324827,-0.171941981 5.12155601,1.63134661 C3.60484312,2.63365687 2.36271372,4.0452126 1.53885143,5.71658281 C0.869114604,10.9167193 15.4018745,20.6340525 18.496433,16.214565 C20.8459418,12.8591186 21.0336968,8.65879654 19.3315443,5.35420462 Z" id="Oval-1" fill="#44342E"></path>
                </g>
            </g>
        </g>
    </g>
</svg>